<?xml version="1.0" encoding="UTF-8" standalone="no"?>
<svg
   xmlns:dc="http://purl.org/dc/elements/1.1/"
   xmlns:cc="http://creativecommons.org/ns#"
   xmlns:rdf="http://www.w3.org/1999/02/22-rdf-syntax-ns#"
   xmlns:svg="http://www.w3.org/2000/svg"
   xmlns="http://www.w3.org/2000/svg"
   viewBox="0 0 7559.0532 7559.0532"
   height="7559.0532"
   width="7559.0532"
   xml:space="preserve"
   id="svg2"
   version="1.1"><metadata
     id="metadata8"><rdf:RDF><cc:Work
         rdf:about=""><dc:format>image/svg+xml</dc:format><dc:type
           rdf:resource="http://purl.org/dc/dcmitype/StillImage" /></cc:Work></rdf:RDF></metadata><defs
     id="defs6"><clipPath
       id="clipPath18"
       clipPathUnits="userSpaceOnUse"><path
         id="path16"
         d="M 0,5669.29 H 5669.29 V 0 H 0 Z" /></clipPath></defs><g
     transform="matrix(1.3333333,0,0,-1.3333333,0,7559.0533)"
     id="g10"><g
       id="g12"><g
         clip-path="url(#clipPath18)"
         id="g14"><g
           transform="translate(3187.8252,4383.3037)"
           id="g20"><path
             id="path22"
             style="fill:#41bbab;fill-opacity:1;fill-rule:nonzero;stroke:none"
             d="m 0,0 1497.991,162.138 h 705.184 L 2345.81,0 Z M 2203.175,-202.649 H 1497.991 L 0,-40.528 H 2345.81 Z M 2024.819,-405.348 H 1498.771 L 3.247,-81.594 1495.458,-243.097 c 0.518,-0.049 1.039,-0.099 1.625,-0.099 h 670.435 z M 1846.327,-608.047 H 1499.615 L 9.938,-124.335 1493.834,-445.553 c 1.04,-0.229 2.142,-0.324 3.249,-0.324 h 492.011 z M 1668.102,-810.696 H 1500.394 L 19.422,-169.557 1492.144,-647.766 c 1.69,-0.553 3.314,-0.809 4.939,-0.809 h 313.588 z M 1493.38,-1009.224 32.351,-218.547 1490.719,-849.897 c 2.077,-0.891 4.286,-1.313 6.364,-1.313 h 135.293 z M -3051.263,0 l 142.65,162.138 h 705.151 L -705.556,0 Z m 847.801,-202.649 h -705.151 l -142.65,162.121 h 2345.707 z m -0.877,-202.699 h -525.918 l -142.699,162.152 h 670.29 c 0.585,0 1.183,0.05 1.719,0.099 l 1492.143,161.503 z m -0.828,-202.699 h -346.828 l -142.668,162.17 h 491.997 c 1.183,0 2.24,0.095 3.343,0.324 l 1483.829,321.172 z m -0.796,-202.649 h -167.64 l -142.65,162.121 h 313.587 c 1.674,0 3.294,0.256 4.886,0.809 l 1472.803,478.209 z m 7.013,-198.528 -138.996,158.014 h 135.28 c 2.174,0 4.337,0.422 6.331,1.313 l 1458.402,631.35 z m -531.307,1374.078 h 525.918 L -708.804,41.1 -2200.947,202.586 c -0.536,0.1 -1.134,0.1 -1.719,0.1 h -670.29 z m 178.262,202.682 h 346.828 L -715.494,83.87 -2199.323,405.042 c -1.103,0.225 -2.16,0.324 -3.343,0.324 h -491.997 z m 178.392,202.649 h 167.64 L -724.977,129.059 -2197.78,607.254 c -1.592,0.55 -3.212,0.81 -4.886,0.81 h -313.587 z M -2198.95,968.727 -737.933,178.05 -2196.335,809.382 c -1.994,0.895 -4.157,1.318 -6.331,1.318 h -135.28 z M 1498.771,364.854 h 526.048 l 142.699,-162.168 h -670.435 c -0.586,0 -1.107,0 -1.625,-0.1 L 3.247,41.1 Z m 0.844,202.682 h 346.712 l 142.767,-162.17 h -492.011 c -1.107,0 -2.209,-0.099 -3.249,-0.324 L 9.938,83.82 Z m 0.779,202.649 h 167.708 l 142.569,-162.121 h -313.588 c -1.625,0 -3.249,-0.26 -4.939,-0.81 L 19.422,129.059 Z M 1493.38,968.727 1632.376,810.7 h -135.293 c -2.078,0 -4.287,-0.423 -6.364,-1.318 L 32.351,178.05 Z M 2401.536,-5.911 1509.684,1007.456 c -5.264,6.086 -13.448,7.666 -20.33,4.026 L -352.735,14.535 -2194.968,1011.482 c -6.838,3.64 -14.941,2.06 -20.299,-4.026 L -2393.578,804.771 -3106.961,-5.911 c -3.298,-3.653 -5.296,-8.718 -5.296,-14.32 0,-5.65 1.998,-10.671 5.296,-14.373 l 713.383,-810.682 178.311,-202.663 c 3.424,-3.931 7.99,-5.979 12.601,-5.979 2.614,0 5.259,0.685 7.698,1.948 l 1842.233,996.934 1842.089,-996.934 c 2.465,-1.263 5.196,-1.948 7.729,-1.948 4.674,0 9.223,2.048 12.601,5.979 l 891.852,1013.345 c 3.316,3.801 5.07,8.948 5.07,14.373 0,5.376 -1.754,10.523 -5.07,14.32" /></g><g
           transform="translate(5457.252,1268.0293)"
           id="g24"><path
             id="path26"
             style="fill:#231f20;fill-opacity:1;fill-rule:nonzero;stroke:none"
             d="M 0,0 H -124.223 L 6.006,177.515 c 0.584,0.939 0.909,2.203 0.909,3.764 0,6.689 -4.774,16.857 -6.915,16.857 h -145.494 c -4.416,0 -6.334,-3.217 -6.334,-10.815 v -2.533 c 0,-7.603 1.918,-10.783 6.334,-10.783 H -31.146 L -161.343,-3.511 c -0.647,-0.972 -0.939,-2.209 -0.939,-3.795 0,-6.336 4.414,-16.857 7.63,-16.857 H 0 c 4.413,0 6.299,3.215 6.299,10.814 v 2.565 C 6.299,-3.187 4.413,0 0,0 M -196.351,0 H -289.1 v 77.485 h 82.91 c 4.413,0 6.332,2.858 6.332,9.484 v 5.132 c 0,6.623 -1.919,9.484 -6.332,9.484 h -82.91 v 72.42 h 92.425 c 4.448,0 6.33,2.856 6.33,9.516 v 5.064 c 0,6.689 -1.882,9.551 -6.33,9.551 H -307.52 c -6.621,0 -9.514,-2.862 -9.514,-9.551 V -14.618 c 0,-6.658 2.893,-9.545 9.514,-9.545 h 111.169 c 4.45,0 6.335,2.887 6.335,9.545 v 5.066 c 0,6.696 -1.885,9.552 -6.335,9.552 M -440.96,97.815 h -41.895 v 76.19 h 39.687 c 25.72,0 42.836,-11.432 42.836,-37.155 0,-20.978 -17.766,-39.035 -40.628,-39.035 m 61.606,-50.498 c -8.246,20.946 -15.264,35.233 -28.581,39.652 v 1.3 c 22.215,8.898 36.539,26.371 36.539,53.651 0,40.007 -26.988,56.216 -76.545,56.216 h -53.361 c -6.625,0 -9.514,-2.862 -9.514,-9.551 V -17.798 c 0,-4.417 3.834,-6.98 12.732,-6.98 h 2.532 c 8.899,0 12.697,2.563 12.697,6.98 v 91.451 h 28.548 c 24.81,0 37.802,-6.332 47.349,-31.11 l 24.1,-62.226 c 1.295,-3.181 6.36,-5.095 12.694,-5.095 h 3.186 c 9.221,0 13.347,1.914 13.347,5.095 0,0.94 -0.293,2.534 -0.944,4.418 z m -238.86,47.318 h -49.525 v 79.37 h 45.076 c 18.705,0 42.838,-6.657 42.838,-38.126 0,-34.622 -25.725,-41.244 -38.389,-41.244 m -3.509,103.501 h -64.462 c -6.658,0 -9.518,-2.862 -9.518,-9.551 V -17.798 c 0,-4.417 3.831,-6.98 12.7,-6.98 h 2.531 c 8.9,0 12.733,2.563 12.733,6.98 v 88.301 h 49.232 c 16.435,0 67.58,7.275 67.58,65.376 0,53.651 -43.484,62.257 -70.796,62.257 m -142.406,0.617 h -10.456 c -7.602,0 -11.436,-2.21 -13.315,-5.718 l -60.08,-106.066 -8.22,-18.058 -8.215,20.006 -60.049,104.118 c -1.916,3.508 -5.682,5.718 -13.315,5.718 h -11.463 c -8.867,0 -12.7,-2.533 -12.7,-6.951 v -209.6 c 0,-4.417 3.833,-6.98 12.7,-6.98 h 2.239 c 8.899,0 12.669,2.563 12.669,6.98 v 172.737 l 64.821,-113.047 c 1.558,-2.858 3.799,-4.09 6.984,-4.09 h 12.664 c 3.508,0 5.457,1.232 7.013,4.09 l 63.818,111.167 V -17.798 c 0,-4.417 3.829,-6.98 12.664,-6.98 h 2.241 c 8.93,0 12.664,2.563 12.664,6.98 v 209.6 c 0,4.418 -3.734,6.951 -12.664,6.951 m -269.941,0 h -2.534 c -8.866,0 -12.699,-2.533 -12.699,-6.951 v -209.6 c 0,-4.417 3.833,-6.98 12.699,-6.98 h 2.534 c 8.93,0 12.7,2.563 12.7,6.98 v 209.6 c 0,4.418 -3.77,6.951 -12.7,6.951 m -258.281,-142.246 33.319,94.636 5.132,18.413 4.057,-18.413 33.354,-94.636 z m 55.923,137.18 c -1.301,3.83 -6.395,5.066 -12.76,5.066 h -9.193 c -6.365,0 -11.463,-1.236 -12.7,-5.066 l -75.276,-208.629 c -0.585,-1.884 -0.909,-3.18 -0.909,-4.448 0,-3.474 4.088,-5.388 13.639,-5.388 h 1.589 c 6.333,0 11.431,1.262 12.669,5.095 l 18.12,52.091 h 93.334 l 18.739,-52.091 c 1.268,-3.833 6.364,-5.095 12.7,-5.095 h 2.564 c 9.515,0 13.608,2.238 13.608,5.388 0,1.268 -0.293,2.564 -0.908,4.125 z m -153.805,5.066 h -2.469 c -8.933,0 -12.764,-2.533 -12.764,-6.951 v -154 c 0,-27.347 -12.988,-39.073 -44.461,-39.073 -10.131,0 -17.469,2.827 -19.969,2.827 -5.067,0 -7.05,-16.174 -7.05,-17.407 0,-8.605 20.037,-10.198 32.12,-10.198 48.874,0 67.324,26.987 67.324,67 v 150.851 c 0,4.418 -3.832,6.951 -12.731,6.951 M -1500.524,13.964 c -4.058,0 -21.887,-15.85 -54.56,-15.85 -49.883,0 -73.393,27.606 -73.393,88.563 0,62.549 23.835,89.214 74.661,89.214 30.497,0 45.761,-13.97 49.234,-13.97 4.058,0 10.783,13.057 10.783,18.45 0,8.573 -29.227,19.681 -60.634,19.681 -68.006,0 -102.917,-37.154 -102.917,-113.083 0,-77.425 32.706,-113.018 102.266,-113.018 37.092,0 65.735,14.293 65.735,22.862 0,3.833 -7.018,17.151 -11.175,17.151 m -310.925,42.543 33.353,94.636 5.067,18.413 4.126,-18.413 33.351,-94.636 z m 55.925,137.18 c -1.264,3.83 -6.367,5.066 -12.764,5.066 h -9.191 c -6.334,0 -11.431,-1.236 -12.694,-5.066 l -75.22,-208.629 c -0.649,-1.884 -0.972,-3.18 -0.972,-4.448 0,-3.474 4.127,-5.388 13.673,-5.388 h 1.56 c 6.33,0 11.396,1.262 12.695,5.095 l 18.122,52.091 h 93.37 l 18.707,-52.091 c 1.232,-3.833 6.334,-5.095 12.73,-5.095 h 2.5 c 9.517,0 13.704,2.238 13.704,5.388 0,1.268 -0.354,2.564 -1.008,4.125 z m -129.029,-12.408 c 0,6.689 -4.804,16.857 -7.013,16.857 h -145.395 c -4.447,0 -6.365,-3.217 -6.365,-10.815 v -2.533 c 0,-7.603 1.918,-10.783 6.365,-10.783 h 114.282 L -2052.841,-3.511 c -0.684,-0.972 -0.977,-2.209 -0.977,-3.795 0,-6.336 4.45,-16.857 7.635,-16.857 h 154.617 c 4.45,0 6.336,3.215 6.336,10.814 v 2.565 c 0,7.597 -1.886,10.784 -6.336,10.784 h -124.187 l 130.23,177.515 c 0.646,0.939 0.97,2.203 0.97,3.764 m -224.894,17.474 h -2.533 c -8.869,0 -12.7,-2.533 -12.7,-6.951 v -209.6 c 0,-4.417 3.831,-6.98 12.7,-6.98 h 2.533 c 8.899,0 12.699,2.563 12.699,6.98 v 209.6 c 0,4.418 -3.8,6.951 -12.699,6.951 m -87.423,0 h -2.211 c -8.897,0 -12.699,-2.533 -12.699,-6.951 V 21.886 l -9.546,17.795 -101.293,153.029 c -3.149,4.48 -6.303,6.043 -13.317,6.043 h -6.689 c -8.868,0 -12.699,-2.533 -12.699,-6.951 v -209.6 c 0,-4.417 3.831,-6.98 12.699,-6.98 h 2.24 c 8.898,0 12.662,2.563 12.662,6.98 v 171.797 l 8.645,-16.172 104.765,-158.159 c 1.917,-2.86 5.034,-4.446 11.076,-4.446 h 6.367 c 8.897,0 12.694,2.563 12.694,6.98 v 209.6 c 0,4.418 -3.797,6.951 -12.694,6.951 m -323.009,-142.246 33.321,94.636 5.098,18.413 4.125,-18.413 33.317,-94.636 z m 55.893,137.18 c -1.27,3.83 -6.336,5.066 -12.733,5.066 h -9.189 c -6.367,0 -11.434,-1.236 -12.7,-5.066 l -75.246,-208.629 c -0.617,-1.884 -0.942,-3.18 -0.942,-4.448 0,-3.474 4.122,-5.388 13.642,-5.388 h 1.589 c 6.333,0 11.466,1.262 12.667,5.095 l 18.121,52.091 h 93.367 l 18.74,-52.091 c 1.233,-3.833 6.33,-5.095 12.696,-5.095 h 2.533 c 9.518,0 13.64,2.238 13.64,5.388 0,1.268 -0.323,2.564 -0.941,4.125 z m -150.626,-103.21 h -55.564 c -4.45,0 -6.366,-2.855 -6.366,-9.514 v -5.07 c 0,-6.656 1.916,-9.515 6.366,-9.515 h 37.117 V 2.208 c -8.541,-2.208 -24.436,-4.094 -40.919,-4.094 -56.558,0 -71.12,41.244 -71.12,89.83 0,55.273 18.413,87.947 74.611,87.947 30.461,0 45.725,-13.97 49.202,-13.97 4.125,0 10.779,13.057 10.779,18.45 0,8.573 -29.192,19.681 -60.647,19.681 -66.347,0 -102.886,-35.922 -102.886,-114.967 0,-75.541 34.946,-111.134 98.144,-111.134 36.197,0 70.796,5.101 70.796,22.862 v 84.15 c 0,6.659 -2.856,9.514 -9.513,9.514 m -270.621,7.338 h -41.928 v 76.19 h 39.67 c 25.737,0 42.867,-11.432 42.867,-37.155 0,-20.978 -17.765,-39.035 -40.609,-39.035 m 61.605,-50.498 c -8.282,20.946 -15.264,35.233 -28.611,39.652 v 1.3 c 22.245,8.898 36.538,26.371 36.538,53.651 0,40.007 -27.006,56.216 -76.532,56.216 h -53.31 c -6.689,0 -9.578,-2.862 -9.578,-9.551 V -17.798 c 0,-4.417 3.828,-6.98 12.727,-6.98 h 2.551 c 8.88,0 12.682,2.563 12.682,6.98 v 91.451 h 28.58 c 24.761,0 37.803,-6.332 47.318,-31.11 l 24.126,-62.226 c 1.286,-3.181 6.366,-5.095 12.682,-5.095 h 3.203 c 9.172,0 13.312,1.914 13.312,5.095 0,0.94 -0.306,2.534 -0.923,4.418 z m -278.579,-49.203 c -44.784,0 -68.928,31.115 -68.928,89.508 0,58.42 24.144,88.269 68.928,88.269 44.754,0 69.172,-29.849 69.172,-88.269 0,-58.393 -24.418,-89.508 -69.172,-89.508 m 0,201.938 c -63.54,0 -97.802,-38.131 -97.802,-112.43 0,-74.307 34.262,-113.671 97.802,-113.671 63.801,0 98.095,39.364 98.095,113.671 0,74.299 -34.294,112.43 -98.095,112.43 M -3384.357,1.624 c -8.057,-4.68 -15.835,-7.051 -23.384,-7.051 -12.079,0 -21.45,4.482 -28.076,13.415 -6.609,8.931 -9.889,17.537 -9.889,25.819 0,6.784 2.34,13.672 7.131,20.623 4.742,6.882 13.896,14.419 27.487,22.536 l 46.071,-57.092 c -4.822,-7.473 -11.269,-13.576 -19.34,-18.25 m -30.173,155.168 c 4.53,4.383 10.181,6.559 16.969,6.559 6.626,0 12.128,-2.209 16.546,-6.625 4.436,-4.413 6.627,-10.131 6.627,-17.082 0,-5.875 -1.593,-11.233 -4.791,-16.075 -3.23,-4.84 -10.28,-10.49 -21.158,-16.919 l -11.187,13.023 c -3.248,3.896 -5.718,7.631 -7.306,11.072 -1.643,3.51 -2.452,6.819 -2.452,10.006 0,6.297 2.271,11.691 6.752,16.041 m 81.63,-134.285 c 7.616,11.525 13.689,26.234 18.156,44.131 l -26.114,5.556 c -2.335,-10.784 -5.584,-20.297 -9.772,-28.486 l -36.731,46.769 c 25.799,13.771 38.679,30.399 38.679,49.85 0,12.017 -4.449,22.311 -13.348,30.852 -8.866,8.539 -20.284,12.828 -34.248,12.828 -14.63,0 -26.741,-4.514 -36.404,-13.573 -9.596,-9.091 -14.419,-19.747 -14.419,-32.055 0,-6.14 1.526,-12.537 4.594,-19.128 3.085,-6.627 9.209,-15.201 18.432,-25.854 -16.205,-7.728 -28.352,-16.626 -36.535,-26.857 -8.12,-10.162 -12.182,-21.596 -12.182,-34.264 0,-14.255 4.97,-27.148 14.926,-38.673 12.291,-14.131 28.918,-21.207 49.85,-21.207 11.364,0 21.918,2.271 31.694,6.882 9.762,4.612 18.791,11.498 27.069,20.752 10.801,-12.763 21.287,-22.408 31.423,-28.935 l 16.888,20.006 c -11.92,8.443 -22.556,18.929 -31.958,31.406 m -264.422,67.97 h -55.563 c -4.467,0 -6.384,-2.855 -6.384,-9.514 v -5.07 c 0,-6.656 1.917,-9.515 6.384,-9.515 h 37.119 V 2.208 c -8.556,-2.208 -24.424,-4.094 -40.934,-4.094 -56.527,0 -71.143,41.244 -71.143,89.83 0,55.273 18.431,87.947 74.647,87.947 30.466,0 45.712,-13.97 49.203,-13.97 4.125,0 10.797,13.057 10.797,18.45 0,8.573 -29.197,19.681 -60.648,19.681 -66.383,0 -102.885,-35.922 -102.885,-114.967 0,-75.541 34.928,-111.134 98.144,-111.134 36.192,0 70.782,5.101 70.782,22.862 v 84.15 c 0,6.659 -2.861,9.514 -9.519,9.514 m -218.903,108.276 h -2.209 c -8.912,0 -12.712,-2.533 -12.712,-6.951 V 21.886 l -9.547,17.795 -101.28,153.029 c -3.167,4.48 -6.329,6.043 -13.311,6.043 h -6.676 c -8.899,0 -12.714,-2.533 -12.714,-6.951 v -209.6 c 0,-4.417 3.815,-6.98 12.714,-6.98 h 2.208 c 8.898,0 12.745,2.563 12.745,6.98 v 171.797 l 8.543,-16.172 104.766,-158.159 c 1.917,-2.86 5.102,-4.446 11.126,-4.446 h 6.347 c 8.899,0 12.714,2.563 12.714,6.98 v 209.6 c 0,4.418 -3.815,6.951 -12.714,6.951 m -230.563,0 h -2.551 c -8.88,0 -12.696,-2.533 -12.696,-6.951 v -209.6 c 0,-4.417 3.816,-6.98 12.696,-6.98 h 2.551 c 8.885,0 12.7,2.563 12.7,6.98 v 209.6 c 0,4.418 -3.815,6.951 -12.7,6.951 m -58.798,-0.617 h -148.918 c -4.479,0 -6.396,-2.862 -6.396,-9.551 v -5.064 c 0,-6.66 1.917,-9.516 6.396,-9.516 h 60.959 V -17.798 c 0,-4.417 3.782,-6.98 12.694,-6.98 h 2.534 c 8.885,0 12.7,2.563 12.7,6.98 v 191.803 h 60.031 c 4.435,0 6.315,2.856 6.315,9.516 v 5.064 c 0,6.689 -1.88,9.551 -6.315,9.551 M -4289.238,0 h -92.687 v 77.485 h 82.849 c 4.449,0 6.33,2.858 6.33,9.484 v 5.132 c 0,6.623 -1.881,9.484 -6.33,9.484 h -82.849 v 72.42 h 92.377 c 4.436,0 6.335,2.856 6.335,9.516 v 5.064 c 0,6.689 -1.899,9.551 -6.335,9.551 h -110.821 c -6.658,0 -9.515,-2.862 -9.515,-9.551 V -14.618 c 0,-6.658 2.857,-9.545 9.515,-9.545 h 111.131 c 4.45,0 6.348,2.887 6.348,9.545 v 5.066 c 0,6.696 -1.898,9.552 -6.348,9.552 m -247.451,89.208 79.388,99.085 c 2.259,2.533 3.168,4.742 3.168,6.334 0,2.241 -3.478,4.126 -11.107,4.126 h -3.15 c -6.983,0 -14.306,-0.943 -17.163,-4.419 l -78.088,-99.699 h -1.287 v 97.167 c 0,4.418 -3.815,6.951 -12.695,6.951 h -2.569 c -8.862,0 -12.682,-2.533 -12.682,-6.951 v -209.6 c 0,-4.417 3.82,-6.98 12.682,-6.98 h 2.569 c 8.88,0 12.695,2.563 12.695,6.98 v 99.377 h 1.287 l 90.802,-102.203 c 3.783,-4.154 10.473,-4.154 17.437,-4.154 h 3.819 c 9.853,0 13.996,0.938 13.996,4.446 0,1.297 -0.648,2.534 -2.892,5.067 z m -180.129,8.607 h -41.923 v 76.19 h 39.701 c 25.705,0 42.85,-11.432 42.85,-37.155 0,-20.978 -17.761,-39.035 -40.628,-39.035 m 61.61,-50.498 c -8.282,20.946 -15.264,35.233 -28.599,39.652 v 1.3 c 22.247,8.898 36.508,26.371 36.508,53.651 0,40.007 -26.957,56.216 -76.514,56.216 h -53.329 c -6.658,0 -9.546,-2.862 -9.546,-9.551 V -17.798 c 0,-4.417 3.833,-6.98 12.732,-6.98 h 2.532 c 8.881,0 12.683,2.563 12.683,6.98 v 91.451 h 28.576 c 24.765,0 37.802,-6.332 47.317,-31.11 l 24.149,-62.226 c 1.264,-3.181 6.347,-5.095 12.682,-5.095 h 3.199 c 9.19,0 13.297,1.914 13.297,5.095 0,0.94 -0.31,2.534 -0.926,4.418 z m -298.26,9.19 33.335,94.636 5.052,18.413 4.17,-18.413 33.323,-94.636 z m 55.856,137.18 c -1.264,3.83 -6.317,5.066 -12.682,5.066 h -9.204 c -6.367,0 -11.4,-1.236 -12.7,-5.066 l -75.264,-208.629 c -0.617,-1.884 -0.923,-3.18 -0.923,-4.448 0,-3.474 4.121,-5.388 13.654,-5.388 h 1.575 c 6.334,0 11.417,1.262 12.681,5.095 l 18.139,52.091 h 93.304 l 18.737,-52.091 c 1.269,-3.833 6.383,-5.095 12.731,-5.095 h 2.551 c 9.515,0 13.64,2.238 13.64,5.388 0,1.268 -0.341,2.564 -0.958,4.125 z m -155.998,5.066 h -10.486 c -7.634,0 -11.449,-2.21 -13.348,-5.718 l -59.999,-106.066 -8.251,-18.058 -8.283,20.006 -60.03,104.118 c -1.867,3.508 -5.7,5.718 -13.285,5.718 h -11.462 c -8.85,0 -12.682,-2.533 -12.682,-6.951 v -209.6 c 0,-4.417 3.832,-6.98 12.682,-6.98 h 2.227 c 8.898,0 12.694,2.563 12.694,6.98 v 172.737 l 64.791,-113.047 c 1.575,-2.858 3.815,-4.09 6.982,-4.09 h 12.714 c 3.491,0 5.394,1.232 6.982,4.09 l 63.819,111.167 V -17.798 c 0,-4.417 3.815,-6.98 12.681,-6.98 h 2.254 c 8.867,0 12.669,2.563 12.669,6.98 v 209.6 c 0,4.418 -3.802,6.951 -12.669,6.951" /></g><g
           transform="translate(189.2871,2442.9443)"
           id="g28"><path
             id="path30"
             style="fill:#2c2829;fill-opacity:1;fill-rule:nonzero;stroke:none"
             d="M 0,0 C 0,21.27 18.296,33.385 60.858,33.385 H 96.34 c 42.54,0 60.827,-12.115 60.827,-33.385 v -648.771 c 0,-21.307 -18.287,-33.486 -60.827,-33.486 H 60.858 C 18.296,-682.257 0,-670.078 0,-648.771 Z" /></g><g
           transform="translate(1454.9873,2432.7461)"
           id="g32"><path
             id="path34"
             style="fill:#2c2829;fill-opacity:1;fill-rule:nonzero;stroke:none"
             d="m 0,0 c 0,28.386 12.196,40.597 40.628,40.597 h 338.547 c 21.207,0 30.384,-15.235 30.384,-50.696 v -31.469 c 0,-35.463 -9.177,-50.665 -30.384,-50.665 H 156.164 V -240.192 H 372.08 c 21.288,0 30.366,-15.2 30.366,-50.695 v -31.469 c 0,-35.431 -9.078,-50.665 -30.366,-50.665 H 156.164 v -265.552 c 0,-21.307 -18.251,-32.448 -60.827,-32.448 H 60.827 C 18.251,-671.021 0,-659.88 0,-638.573 Z" /></g><g
           transform="translate(1959.1138,2442.9443)"
           id="g36"><path
             id="path38"
             style="fill:#2c2829;fill-opacity:1;fill-rule:nonzero;stroke:none"
             d="m 0,0 c 0,21.27 18.25,33.385 60.844,33.385 h 35.415 c 42.575,0 60.827,-12.115 60.827,-33.385 v -648.771 c 0,-21.307 -18.252,-33.486 -60.827,-33.486 H 60.844 C 18.25,-682.257 0,-670.078 0,-648.771 Z" /></g><g
           transform="translate(3218.7764,2442.9443)"
           id="g40"><path
             id="path42"
             style="fill:#2c2829;fill-opacity:1;fill-rule:nonzero;stroke:none"
             d="m 0,0 c 0,21.27 18.251,33.385 60.827,33.385 h 35.37 c 42.638,0 60.889,-12.115 60.889,-33.385 v -648.771 c 0,-21.307 -18.251,-33.486 -60.889,-33.486 H 60.827 C 18.251,-682.257 0,-670.078 0,-648.771 Z" /></g><g
           transform="translate(3640.5439,2340.5127)"
           id="g44"><path
             id="path46"
             style="fill:#2c2829;fill-opacity:1;fill-rule:nonzero;stroke:none"
             d="m 0,0 h -161.115 c -21.303,0 -30.462,15.202 -30.462,50.665 v 31.47 c 0,35.461 9.159,50.695 30.462,50.695 H 318.36 c 21.307,0 30.336,-15.234 30.336,-50.695 V 50.665 C 348.696,15.202 339.667,0 318.36,0 H 157.149 v -546.34 c 0,-21.306 -18.251,-32.447 -60.827,-32.447 H 60.827 C 18.216,-578.787 0,-567.646 0,-546.34 Z" /></g><g
           transform="translate(4064.6162,2442.9443)"
           id="g48"><path
             id="path50"
             style="fill:#2c2829;fill-opacity:1;fill-rule:nonzero;stroke:none"
             d="m 0,0 c 0,21.27 18.251,32.408 60.759,32.408 h 34.492 c 42.575,0 60.827,-11.138 60.827,-32.408 v -431.867 c 0,-70.928 55.73,-122.663 137.859,-122.663 82.132,0 138.872,51.735 138.872,122.663 V 0 c 0,21.27 18.251,32.408 60.889,32.408 h 33.385 c 42.611,0 60.826,-11.138 60.826,-32.408 v -441.998 c 0,-156.079 -108.436,-245.293 -293.972,-245.293 C 108.437,-687.291 0,-598.077 0,-441.998 Z" /></g><g
           transform="translate(4766.0332,2442.9443)"
           id="g52"><path
             id="path54"
             style="fill:#2c2829;fill-opacity:1;fill-rule:nonzero;stroke:none"
             d="m 0,0 c 0,21.27 18.184,32.408 60.827,32.408 h 53.683 c 29.422,0 52.77,-7.107 63.91,-27.343 L 356.779,-312.224 537.215,5.065 c 11.205,20.236 34.459,27.343 63.849,27.343 h 52.739 c 42.643,0 60.894,-11.138 60.894,-32.408 v -648.771 c 0,-21.307 -18.251,-32.448 -60.894,-32.448 h -29.355 c -42.574,0 -60.831,11.141 -60.831,32.448 v 419.652 l -4.027,1.008 -147.017,-262.537 c -9.124,-12.147 -21.269,-19.259 -40.497,-19.259 h -29.521 c -19.159,0 -31.369,7.112 -40.465,19.259 l -147.052,262.537 -4.024,-1.008 v -419.652 c 0,-21.307 -18.253,-32.448 -60.827,-32.448 H 60.827 C 18.184,-681.219 0,-670.078 0,-648.771 Z" /></g><g
           transform="translate(2809.7578,1900.4658)"
           id="g56"><path
             id="path58"
             style="fill:#2c2829;fill-opacity:1;fill-rule:nonzero;stroke:none"
             d="m 0,0 c 0,0 -142.308,284.621 -213.465,426.93 -71.156,142.308 -142.311,142.308 -142.311,142.308 -50.354,0 -65.03,-35.627 -69.352,-56.441 46.165,-39.752 69.352,-85.867 69.352,-85.867 0,0 142.311,-284.621 213.468,-426.93 71.152,-142.312 284.634,-142.312 284.634,-142.312 C 71.168,-142.312 0,0 0,0" /></g><g
           transform="translate(2382.8296,1829.3115)"
           id="g60"><path
             id="path62"
             style="fill:#2c2829;fill-opacity:1;fill-rule:nonzero;stroke:none"
             d="m 0,0 v 569.24 c 0,0 0,71.153 71.152,71.153 H 0 c 0,0 -142.312,0 -142.312,-142.309 V 71.154 c 0,0 0,-142.311 142.312,-142.311 h 1.8 c 11.075,0 22.2,3.442 33.011,9.29 C 17.275,-52.838 0,-35.077 0,0" /></g><g
           transform="translate(2952.084,2469.7041)"
           id="g64"><path
             id="path66"
             style="fill:#2c2829;fill-opacity:1;fill-rule:nonzero;stroke:none"
             d="M 0,0 H -71.158 C 0,0 0,-71.152 0,-71.152 v -569.241 c 0,-34.457 -16.691,-52.189 -33.871,-61.347 11.106,-6.139 22.472,-9.81 33.871,-9.81 142.311,0 142.311,142.312 142.311,142.312 v 426.929 C 142.311,0 0,0 0,0" /></g><g
           transform="translate(2573.3506,1993.249)"
           id="g68"><path
             id="path70"
             style="fill:#61cad1;fill-opacity:1;fill-rule:nonzero;stroke:none"
             d="m 0,0 c -27.51,-54.947 -46.408,-92.783 -46.408,-92.783 0,0 -71.157,-142.312 -142.313,-142.312 0,0 170.06,0.099 257.178,101.361 -4.45,6.982 -8.701,14.187 -12.534,21.855 z m 309.363,476.455 c 0,0 -71.171,0 -142.326,-142.309 -13.865,-27.735 -30.461,-60.927 -48.177,-96.358 L 190.017,95.479 c 60.778,121.557 119.346,238.667 119.346,238.667 0,0 23.222,46.116 69.37,85.868 -4.318,20.814 -18.998,56.441 -69.37,56.441" /></g><g
           transform="translate(2453.9814,2469.7041)"
           id="g72"><path
             id="path74"
             style="fill:#231f20;fill-opacity:1;fill-rule:nonzero;stroke:none"
             d="m 0,0 c -50.354,0 -65.029,-35.627 -69.352,-56.441 9.874,-8.512 18.623,-17.28 26.389,-25.852 31.942,19.225 72.065,36.468 116.994,39.879 C 31.766,-0.064 0,0 0,0" /></g><g
           transform="translate(2382.8296,1758.1543)"
           id="g76"><path
             id="path78"
             style="fill:#231f20;fill-opacity:1;fill-rule:nonzero;stroke:none"
             d="M 0,0 H 1.8 C 12.875,0 24,3.442 34.811,9.29 20.847,16.497 7.094,29.261 2.046,51.834 -34.815,38.194 -75.02,39.49 -107.268,44.687 -86.403,19.845 -53.13,0 0,0" /></g><g
           transform="translate(2883.1045,2469.7041)"
           id="g80"><path
             id="path82"
             style="fill:#41bbab;fill-opacity:1;fill-rule:nonzero;stroke:none"
             d="M 0,0 C 50.337,0 65.017,-35.627 69.34,-56.441 59.465,-64.953 50.729,-73.721 42.937,-82.293 11.009,-63.068 -29.129,-45.825 -74.044,-42.414 -31.792,-0.064 0,0 0,0" /></g><g
           transform="translate(2952.084,1758.1543)"
           id="g84"><path
             id="path86"
             style="fill:#231f20;fill-opacity:1;fill-rule:nonzero;stroke:none"
             d="m 0,0 h -1.786 c -11.109,0 -22.18,3.442 -33.03,9.29 13.969,7.207 27.704,19.971 32.769,42.544 C 34.814,38.194 75.02,39.49 107.267,44.687 86.389,19.845 53.129,0 0,0" /></g><g
           transform="translate(1042.999,1900.4658)"
           id="g88"><path
             id="path90"
             style="fill:#2c2829;fill-opacity:1;fill-rule:nonzero;stroke:none"
             d="m 0,0 c 0,0 -142.312,284.621 -213.463,426.93 -71.156,142.308 -142.312,142.308 -142.312,142.308 -50.369,0 -65.048,-35.627 -69.353,-56.441 46.166,-39.752 69.353,-85.867 69.353,-85.867 0,0 142.312,-284.621 213.463,-426.93 71.156,-142.312 284.621,-142.312 284.621,-142.312 C 71.152,-142.312 0,0 0,0" /></g><g
           transform="translate(1042.999,1900.4658)"
           id="g92"><path
             id="path94"
             style="fill:#2c2829;fill-opacity:1;fill-rule:nonzero;stroke:none"
             d="m 0,0 c 0,0 -142.312,284.621 -213.463,426.93 -71.156,142.308 -142.312,142.308 -142.312,142.308 -50.369,0 -65.048,-35.627 -69.353,-56.441 46.166,-39.752 69.353,-85.867 69.353,-85.867 0,0 142.312,-284.621 213.463,-426.93 71.156,-142.312 284.621,-142.312 284.621,-142.312 C 71.152,-142.312 0,0 0,0" /></g><g
           transform="translate(616.0669,1829.3115)"
           id="g96"><path
             id="path98"
             style="fill:#2c2829;fill-opacity:1;fill-rule:nonzero;stroke:none"
             d="m 0,0 v 569.24 c 0,0 0,71.153 71.157,71.153 H 0 c 0,0 -142.326,0 -142.326,-142.309 V 71.154 c 0,0 0,-142.311 142.326,-142.311 h 1.804 c 11.076,0 22.183,3.442 32.998,9.29 C 17.279,-52.838 0,-35.077 0,0" /></g><g
           transform="translate(1185.3081,2469.7041)"
           id="g100"><path
             id="path102"
             style="fill:#2c2829;fill-opacity:1;fill-rule:nonzero;stroke:none"
             d="M 0,0 H -71.157 C 0,0 0,-71.152 0,-71.152 v -569.241 c 0,-34.457 -16.677,-52.189 -33.872,-61.347 11.09,-6.139 22.472,-9.81 33.872,-9.81 142.312,0 142.312,142.312 142.312,142.312 v 426.929 C 142.312,0 0,0 0,0" /></g><g
           transform="translate(806.5737,1993.249)"
           id="g104"><path
             id="path106"
             style="fill:#61cad1;fill-opacity:1;fill-rule:nonzero;stroke:none"
             d="m 0,0 c -27.492,-54.947 -46.395,-92.783 -46.395,-92.783 0,0 -71.151,-142.312 -142.308,-142.312 0,0 170.06,0.099 257.179,101.361 -4.45,6.982 -8.719,14.187 -12.538,21.855 z m 309.364,476.455 c 0,0 -71.17,0 -142.326,-142.309 -13.866,-27.735 -30.443,-60.927 -48.177,-96.358 l 71.17,-142.309 c 60.764,121.557 119.333,238.667 119.333,238.667 0,0 23.204,46.116 69.37,85.868 -4.318,20.814 -19.016,56.441 -69.37,56.441" /></g><g
           transform="translate(687.2236,2469.7041)"
           id="g108"><path
             id="path110"
             style="fill:#231f20;fill-opacity:1;fill-rule:nonzero;stroke:none"
             d="m 0,0 c -50.368,0 -65.047,-35.627 -69.353,-56.441 9.857,-8.512 18.624,-17.28 26.372,-25.852 31.954,19.225 72.064,36.468 116.994,39.879 C 31.747,-0.064 0,0 0,0" /></g><g
           transform="translate(616.0669,1758.1543)"
           id="g112"><path
             id="path114"
             style="fill:#231f20;fill-opacity:1;fill-rule:nonzero;stroke:none"
             d="M 0,0 H 1.804 C 12.88,0 23.987,3.442 34.802,9.29 20.833,16.497 7.081,29.261 2.033,51.834 -34.811,38.194 -75.034,39.49 -107.267,44.687 -86.403,19.845 -53.143,0 0,0" /></g><g
           transform="translate(1116.2974,2469.7041)"
           id="g116"><path
             id="path118"
             style="fill:#41bbab;fill-opacity:1;fill-rule:nonzero;stroke:none"
             d="M 0,0 C 50.354,0 65.064,-35.627 69.384,-56.441 59.477,-64.953 50.759,-73.721 42.967,-82.293 11.027,-63.068 -29.084,-45.825 -73.996,-42.414 -31.748,-0.064 0,0 0,0" /></g><g
           transform="translate(1185.3081,1758.1543)"
           id="g120"><path
             id="path122"
             style="fill:#231f20;fill-opacity:1;fill-rule:nonzero;stroke:none"
             d="m 0,0 h -1.787 c -11.12,0 -22.196,3.442 -33.029,9.29 13.968,7.207 27.721,19.971 32.768,42.544 C 34.815,38.194 75.02,39.49 107.266,44.687 86.388,19.845 53.129,0 0,0" /></g></g></g></g></svg>